<svg xmlns="http://www.w3.org/2000/svg" xml:space="preserve" width="1500" height="1500" fill="#fff" stroke="#fff" data-id="lg_S1mhue5mZKyswcR4iy" data-version="1"><path fill="#000" stroke="transparent" d="M0 0h1500v1500H0z"/><g data-padding="20"><g fill="#ababab"><path stroke-width="1.752" d="m438.315 750.018-2.138.035v31.31h-7.744v-69.715h7.744v32.711q2.558 0 3.33-.385t1.821-1.14 3.102-3.1 4.362-5.344q6.15-8.34 8.76-12.212l4.223-6.465q1.647-2.61 2.47-4.117h9.024q-.42.91-1.595 2.785-3.977 6.115-6.342 9.391l-8.743 11.792-3.96 4.888q-4.065 4.818-5.379 5.326v.403l1.42.544q3.136 1.19 8.059 7.709l20.044 26.929h-9.882l-14.63-20.692q-7.34-10.302-12.44-10.618-.735-.035-1.506-.035m43.749 31.345 22.812-69.715h10.617l24.39 69.715h-8.253l-6.92-20.464h-28.07l-6.57 20.464Zm16.662-26.982h23.793l-12.3-36.583-1.419 5.204Zm70.223 27.017-23.968-69.75h8.374l17.591 53.088 2.366 9.338 2.593-9.338 17.187-53.088h8.288l-23.46 69.75Zm46.01-.035v-69.715h39.508v6.746h-31.765v24.055H648.3v6.693h-25.598v25.51h32.992v6.71Zm62.828 0v-62.97h-18.59v-6.745h45.555v6.746h-19.22v62.969Zm38.265 0v-69.715h39.51v6.746h-31.766v24.055h25.616v6.693h-25.616v25.51h32.992v6.71Zm78.423-5.66h.403q7.429 0 14.945-2.873l1.997 6.29q-3.451 1.735-8.34 2.436-4.87.718-8.602.718h-.63q-16.225 0-21.744-9.304-3.364-5.641-4.1-15.207-.315-4.608-.315-10.075t.298-10.407 1.208-9.076q.912-4.117 2.646-7.359 1.717-3.223 4.643-5.466 5.922-4.643 17.223-4.643 7.288 0 11.721.929 4.45.946 5.992 1.524l-2.05 7.201q-8.883-3.084-15.19-3.084t-9.706 1.525-5.31 5.028q-3.328 6.01-3.328 22.917v3.364q0 13.911 3.61 19.413 4.011 6.15 14.629 6.15m30.433 5.659v-69.715h7.744v31.485h32.94v-31.485h7.69v69.715h-7.69v-31.625h-32.94v31.625Zm84.643 0 22.829-69.715h10.617l24.372 69.715h-8.253l-6.92-20.464h-28.068l-6.553 20.464Zm16.68-26.982h23.775l-12.3-36.583-1.401 5.204Zm53.98 26.982v-69.715h40.053v6.746h-32.309v27.384h28.034v6.693h-28.034v28.892Zm54.262 0v-69.487q14.822-1.139 24.88-1.139h.91q10.986 0 15.4 4.923 3.698 4.24 3.698 13.842 0 12.317-3.504 18.326-3.61 6.097-11.95 7.657 1.56 1.91 3.067 4.012l2.68 3.872 11.984 17.994h-9.11l-10.478-16.505q-4.38-6.64-6.482-8.795h-.49q-3.242-.035-6.238-.123l-6.623-.28v25.703Zm7.744-63.705v31.852q4.8.228 15.05.228 8.428 0 11.476-4.73 2.593-4.153 2.593-14.49 0-8.708-3.872-11.389-2.277-1.594-4.993-1.787-2.698-.175-4.73-.175t-3.925.018-3.75.07q-1.874.052-3.784.14Zm55.453 63.705v-69.715h7.709v69.715Zm54.121-5.66h.42q7.43 0 14.946-2.873l1.997 6.29q-3.451 1.735-8.34 2.436-4.87.718-8.602.718h-.649q-16.206 0-21.725-9.304-3.364-5.641-4.1-15.207-.315-4.608-.315-10.075t.297-10.407 1.21-9.076q.91-4.117 2.627-7.359 1.735-3.223 4.661-5.466 5.922-4.643 17.223-4.643 7.288 0 11.721.929 4.45.946 5.992 1.524l-2.05 7.201q-8.883-3.084-15.19-3.084t-9.707 1.525-5.308 5.028q-3.33 6.01-3.33 22.917v3.364q0 13.911 3.61 19.413 4.012 6.15 14.612 6.15m21.919 5.659 22.829-69.715h10.617l24.372 69.715h-8.253l-6.92-20.464h-28.068l-6.553 20.464Zm16.68-26.982h23.775l-12.3-36.583-1.401 5.204Z" font-family="Armata" font-size="53.256"/><path fill-rule="evenodd" stroke="none" d="M365.094 772.538c-8.083 1.841-6.88 4.642-7.674 7.162-.895 2.89 1.075 2.098-.665 5.73-.703 1.484-2.379 4.604-.23 6.69 4.31 4.156 5.717-5.45 6.446-7.42 1.714-4.604 7.175-13.3 2.123-12.15m-30.338 28.471h-.025l.025-.026Zm5.423-5.333c-2.404 3.056-4.579 6.356-7.38 9.042-2.788 2.66-11.626 3.76-12.79 2.187-2.276-3.07-.012-3.261-2.225-7.316-1.714-3.12-2.277-1.7-2.865-6.139-1.01-7.546-2.98-7.93-4.349-13.186-.09-.346.077-.717-.025-1.05-.806-2.519 1.726-5.69 2.34-7.801.832-2.878-.729-6.907-1.765-9.375-.294-.717-.486-1.471-.716-2.226-1.228-3.952-5.142-3.39-3.3-8.39.397-1.1.499-2.34.358-3.505-.217-1.918-.831-2.673-1.982-3.427-.652-.422-1.573-.192-2.34-.077-.55.09-1.024.895-1.536.665-.562-.256-.37-1.202-.729-1.701-.409-.576-.87-1.254-1.547-1.445-2.852-.832-3.262-.576-5.653.537-2.443 1.138-3.083 1.279-5.59 1.19-2.686-.129-2.686.473-5.128.882-3.914.652-7.073-3.21-8.378-5.244-.64-.972-1.407-1.855-1.944-2.89-1.036-2.06-.793-2.188-2.686-3.211-.435-.23-1.164-.294-1.458-1.484-.18-.729.998-1.42.729-2.123-.895-2.29-.473-1.88.358-3.709.154-.358.051-.793.192-1.177 1.215-3.479-.793-5.141-.384-6.778.678-2.61 4.438-7.649 5.602-9.618 1.318-2.213-.038-1.024 1.292-1.574 4.374-1.79 2.302-2.174 4.387-6.267.972-1.918 1.28-1.356 3.031-2.724 1.241-.972.717-2.52 2.264-2.712 2.43-.307.69.768 3.3.857.78.026 1.624.282 2.366.026 2.213-.767 4.426-2.417 7.546-2.507 3.032-.077 6.408-1.957 9.081-.524 1.637.87-.537 4.412.256 5.346 1.228 1.432 2.903.972 4.694 1.714 2.686 1.113.87.997 3.364 2.366 6.14 3.351 3.581-.78 6.165-2.52 2.379-1.598 3.658.55 5.691 1.778.218.128.512.026.768.077 2.148.41 3.479.882 5.614.844 2.469-.051 2.328-1.573 4.477-.128 1.714 1.164-.384 1.138.077 3.274.447 2.136 4.054 6.715 4.655 9.158.128.486.845.576 1.19.934.294.294 3.133 7.776 3.428 8.07 2.033 1.996.294.256 1.637 2.635.882 1.573.332.819 1.803 1.816 1.202.806.205-.243 1.688 1.075.563.498.768.818 1.19 1.394 1.074 1.432-.128 3.005 1.573 4.003 5.704 3.39 8.85-2.865 11-.46 1.713 1.918-2.686 7.38-3.876 9.758-2.84 5.692-9.963 7.726-13.071 14.965-2.366 5.5 1.611 8.288.895 10.718-.051.166.128.384.166.499q.256.767.435 1.573c1.637 7.367-2.942 6.037-6.523 10.078-4.195 4.733-1.663 2.252-1.304 6.575.09 1.24-.128 1.918-.525 2.366-1.19 1.624-2.302 3.3-3.543 4.873" vector-effect="non-scaling-stroke"/></g><path fill="transparent" stroke="transparent" stroke-width="1.818" d="M250 690h1000v120H250z"/></g></svg>