<svg xmlns="http://www.w3.org/2000/svg" xml:space="preserve" data-id="lg_S1mhue5mZKyswcR4iy" data-version="1" viewBox="724.5 -0.5 551 67"><g data-padding="20"><g fill="#9c31db"><path d="m828.573 33.01-1.175.02v17.22h-4.26V11.906h4.26v17.992q1.406 0 1.83-.212t1.003-.627 1.705-1.705 2.4-2.94q3.382-4.586 4.818-6.716l2.322-3.556q.906-1.436 1.359-2.264h4.963q-.232.5-.877 1.532-2.188 3.363-3.489 5.165l-4.808 6.485-2.178 2.689q-2.236 2.65-2.958 2.93v.22l.78.3q1.725.655 4.433 4.24l11.024 14.81h-5.435l-8.046-11.38q-4.038-5.666-6.842-5.84-.405-.019-.829-.019m24.062 17.24 12.547-38.344h5.84l13.413 38.344h-4.539l-3.806-11.256h-15.437l-3.614 11.256Zm9.164-14.84h13.087l-6.765-20.121-.78 2.862Zm38.623 14.859-13.183-38.363h4.607l9.674 29.199 1.301 5.136 1.427-5.136 9.453-29.199h4.558L905.356 50.27Zm25.305-.02V11.907h21.73v3.71h-17.47v13.231h14.078v3.681h-14.079v14.03h18.146v3.692Zm34.556 0V15.617h-10.224v-3.71h25.054v3.71h-10.57V50.25Zm21.046 0V11.907h21.73v3.71h-17.47v13.231h14.087v3.681h-14.088v14.03h18.145v3.692Zm43.132-3.112h.222q4.086 0 8.22-1.58l1.098 3.46q-1.898.953-4.587 1.339-2.679.395-4.731.395h-.347q-8.923 0-11.959-5.117-1.85-3.103-2.255-8.365-.173-2.534-.173-5.54t.164-5.725.665-4.991q.5-2.265 1.455-4.047.944-1.774 2.553-3.007 3.257-2.554 9.473-2.554 4.009 0 6.447.511 2.447.52 3.295.838l-1.127 3.961q-4.886-1.696-8.355-1.696t-5.339.838-2.92 2.766q-1.83 3.305-1.83 12.604v1.85q0 7.652 1.985 10.678 2.207 3.382 8.046 3.382m16.739 3.113V11.906h4.259v17.317h18.116V11.906h4.23V50.25h-4.23V32.856h-18.116V50.25Zm46.553 0 12.556-38.344h5.84l13.404 38.344h-4.539l-3.806-11.256h-15.438l-3.604 11.256Zm9.174-14.84h13.076l-6.765-20.121-.77 2.862Zm29.69 14.84V11.906h22.028v3.71h-17.77v15.062h15.419v3.681h-15.418v15.89Zm29.843 0V12.032q8.152-.627 13.684-.627h.5q6.043 0 8.471 2.708 2.033 2.332 2.033 7.613 0 6.774-1.927 10.08-1.985 3.353-6.572 4.21.858 1.051 1.687 2.207l1.474 2.13 6.591 9.897h-5.01l-5.763-9.078q-2.41-3.652-3.566-4.837h-.27q-1.782-.02-3.43-.068l-3.643-.154V50.25Zm4.26-35.038V32.73q2.64.125 8.277.125 4.635 0 6.312-2.602 1.426-2.284 1.426-7.97 0-4.788-2.13-6.263-1.252-.877-2.746-.983-1.484-.096-2.602-.096t-2.158.01-2.063.038q-1.03.029-2.081.077Zm30.498 35.038V11.906h4.24V50.25Zm29.767-3.113h.231q4.086 0 8.22-1.58l1.099 3.46q-1.899.953-4.587 1.339-2.679.395-4.732.395h-.356q-8.914 0-11.95-5.117-1.85-3.103-2.254-8.365-.174-2.534-.174-5.54t.164-5.725.665-4.991q.501-2.265 1.446-4.047.954-1.774 2.563-3.007 3.257-2.554 9.472-2.554 4.01 0 6.447.511 2.448.52 3.296.838l-1.128 3.961q-4.885-1.696-8.354-1.696t-5.339.838-2.92 2.766q-1.83 3.305-1.83 12.604v1.85q0 7.652 1.984 10.678 2.207 3.382 8.037 3.382m12.055 3.113 12.556-38.344h5.84l13.404 38.344h-4.538l-3.807-11.256h-15.437l-3.604 11.256Zm9.174-14.84h13.077l-6.765-20.121-.771 2.862Z" font-family="Armata" font-size="53.256"/><path fill-rule="evenodd" d="M788.302 45.396c-4.446 1.013-3.785 2.553-4.22 3.939-.493 1.59.59 1.154-.367 3.151-.386.816-1.308 2.533-.126 3.68 2.37 2.286 3.144-2.997 3.545-4.08.943-2.533 3.947-7.316 1.168-6.683m-16.686 15.659h-.014l.014-.015Zm2.983-2.934c-1.323 1.681-2.519 3.496-4.06 4.974-1.533 1.463-6.394 2.068-7.034 1.202-1.252-1.688-.007-1.793-1.224-4.023-.942-1.717-1.252-.936-1.576-3.377-.555-4.15-1.639-4.361-2.391-7.252-.05-.19.042-.394-.014-.577-.444-1.386.95-3.13 1.287-4.291.457-1.583-.401-3.799-.97-5.157-.163-.394-.268-.809-.395-1.224-.675-2.173-2.828-1.864-1.815-4.614a4.26 4.26 0 0 0 .197-1.928c-.12-1.055-.457-1.47-1.09-1.885-.359-.232-.865-.106-1.287-.042-.303.049-.563.492-.845.366-.31-.141-.204-.662-.4-.936-.226-.317-.479-.69-.852-.795-1.568-.457-1.794-.317-3.109.295-1.344.627-1.695.704-3.074.655-1.477-.07-1.477.26-2.82.485-2.153.359-3.891-1.766-4.609-2.884-.351-.535-.773-1.02-1.069-1.59-.57-1.132-.436-1.203-1.477-1.766-.24-.126-.64-.161-.802-.816-.098-.4.549-.78.401-1.167-.492-1.26-.26-1.034.197-2.04.084-.197.028-.436.105-.648.669-1.913-.436-2.827-.21-3.728.372-1.435 2.44-4.206 3.08-5.29.725-1.217-.02-.563.711-.865 2.406-.985 1.266-1.196 2.413-3.447.535-1.055.703-.746 1.667-1.498.682-.535.394-1.386 1.245-1.492 1.337-.169.38.422 1.815.472.43.014.893.154 1.301.014 1.217-.422 2.434-1.33 4.15-1.38 1.668-.041 3.525-1.075 4.995-.287.9.478-.295 2.426.141 2.94.675.788 1.597.535 2.582.943 1.477.612.478.548 1.85 1.301 3.376 1.843 1.97-.43 3.39-1.386 1.309-.88 2.012.303 3.13.978.12.07.282.014.423.042 1.182.225 1.913.486 3.088.464 1.358-.028 1.28-.865 2.462-.07.943.64-.21.626.042 1.801.247 1.175 2.23 3.693 2.561 5.037.07.267.464.316.654.513.162.162 1.724 4.277 1.885 4.439 1.119 1.097.162.14.9 1.45.486.864.184.45.993.998.661.443.112-.134.928.59.31.275.422.451.655.768.59.788-.07 1.653.865 2.202 3.137 1.864 4.868-1.576 6.05-.254.942 1.055-1.478 4.06-2.132 5.368-1.562 3.13-5.48 4.248-7.19 8.23-1.3 3.025.887 4.558.493 5.895-.028.091.07.211.092.274q.14.422.239.866c.9 4.051-1.618 3.32-3.588 5.543-2.307 2.603-.914 1.238-.717 3.616.049.682-.07 1.055-.289 1.301-.654.893-1.266 1.815-1.948 2.68" vector-effect="non-scaling-stroke"/></g><path fill="transparent" stroke="transparent" d="M725 0h550v66H725z"/></g></svg>